<?xml version="1.0" encoding="UTF-8"?>
<svg id="Layer_2" data-name="Layer 2" xmlns="http://www.w3.org/2000/svg" viewBox="0 0 660.96 448.58">
  <g id="Layer_1-2" data-name="Layer 1">
    <g>
      <path d="M579.18,15.02c-2.61-7.62-9.78-12.74-17.83-12.74h-83.67c-8.05,0-15.22,5.12-17.83,12.74l-14.99,43.71c-4.71-7.39-10.15-14.2-16.27-20.4-12.56-12.7-27.65-22.45-44.83-28.97-16.31-6.22-34.32-9.37-53.52-9.37s-37.23,3.16-53.46,9.39c-17.01,6.51-31.97,16.15-44.45,28.63-6.15,6.14-11.61,12.94-16.35,20.33l-14.86-43.33c-2.61-7.62-9.78-12.74-17.83-12.74h-83.67c-8.05,0-15.22,5.12-17.83,12.74L1.02,250.52c-1.97,5.76-1.05,12.12,2.49,17.07,3.54,4.96,9.25,7.9,15.34,7.9h88.52c8.17,0,15.4-5.26,17.93-13.02l8.99-27.64h14.33l8.98,27.63c2.52,7.77,9.76,13.03,17.93,13.03h88.53c5.5,0,10.7-2.4,14.26-6.52,15.84,5.85,33.3,8.81,51.92,8.81s36.36-3.01,52.3-8.96c3.56,4.21,8.82,6.67,14.39,6.67h88.52c8.17,0,15.4-5.26,17.93-13.02l8.99-27.64h14.32l8.99,27.64c2.53,7.77,9.76,13.02,17.93,13.02h88.52c6.09,0,11.8-2.94,15.34-7.9,3.54-4.96,4.47-11.31,2.49-17.07L579.18,15.02ZM567.28,237.78l-8.99-27.64c-2.53-7.77-9.76-13.02-17.93-13.02h-41.71c-8.17,0-15.4,5.26-17.93,13.02l-8.99,27.64h-48.94c.68-6.58-2.16-13.19-7.69-17.2-6.71-4.86-15.81-4.78-22.42.21-6.73,5.08-14.3,9.24-22.5,12.38-11.93,4.58-25.38,6.9-39.97,6.9s-28.05-2.32-40-6.91c-7.96-3.05-15.32-7.07-21.88-11.97-3.34-2.5-7.31-3.74-11.28-3.74s-7.8,1.21-11.11,3.62c-5.38,3.92-8.19,10.3-7.69,16.71h-49.06l-8.98-27.63c-2.52-7.77-9.76-13.03-17.93-13.03h-41.72c-8.17,0-15.4,5.26-17.93,13.02l-8.99,27.64h-48.43L113.08,39.99h56.74l27.39,79.88c2.81,8.18,10.82,13.4,19.44,12.67,8.62-.74,15.63-7.24,17.01-15.78,1.15-7.1,2.89-13.85,5.19-20.08,4.61-12.49,11.37-23.25,20.12-31.99,8.72-8.72,19.25-15.48,31.3-20.09,11.91-4.57,25.36-6.89,39.96-6.89s28.08,2.32,40.11,6.9c12.12,4.6,22.7,11.42,31.43,20.25,8.73,8.82,15.49,19.57,20.09,31.97,2.34,6.28,4.11,13.13,5.25,20.37,1.35,8.55,8.36,15.09,16.99,15.84,8.63.75,16.66-4.47,19.47-12.67l27.57-80.38h56.74l67.83,197.79h-48.43Z"/>
      <path d="M24.38,373.17h6.73c.79,0,1.49-.5,1.76-1.24l4.32-12.14h23.28l4.3,12.13c.26.75.97,1.24,1.76,1.24h6.65c.61,0,1.18-.3,1.53-.8.35-.5.43-1.14.22-1.71l-19.88-54.48c-.27-.74-.97-1.23-1.76-1.23h-8.97c-.78,0-1.48.49-1.75,1.23l-19.95,54.48c-.21.57-.13,1.21.22,1.71.35.5.92.8,1.53.8ZM40.38,350.83l7.67-21.52.8-2.36,8.45,23.88h-16.91Z"/>
      <path d="M87.23,314.96h-8.15c-1.03,0-1.87.84-1.87,1.87v54.48c0,1.03.84,1.87,1.87,1.87h6.43c1.03,0,1.87-.84,1.87-1.87v-28.36l-.2-11.72,27.57,41.12c.35.52.93.83,1.55.83h7.85c1.03,0,1.87-.84,1.87-1.87v-54.48c0-1.03-.84-1.87-1.87-1.87h-6.13c-1.03,0-1.87.84-1.87,1.87v27.61l.21,12.68-27.57-41.33c-.35-.52-.93-.83-1.55-.83Z"/>
      <path d="M244.16,314.96h-6.95c-.86,0-1.62.59-1.82,1.43l-7.79,32.65-1.73,8.65-1.95-8.74-8.22-32.58c-.21-.83-.96-1.41-1.81-1.41h-8.22c-.86,0-1.6.58-1.81,1.41l-8.31,33.09-1.82,8.28-1.71-8.31-7.92-33.03c-.2-.84-.95-1.43-1.82-1.43h-6.95c-.58,0-1.12.27-1.47.72-.1.13-.18.27-.24.42-.28-.67-.95-1.14-1.72-1.14h-41.78c-1.03,0-1.87.84-1.87,1.87v5.6c0,1.03.84,1.87,1.87,1.87h15.77v47.01c0,1.03.84,1.87,1.87,1.87h6.35c1.03,0,1.87-.84,1.87-1.87v-47.01h15.92c1.03,0,1.87-.84,1.87-1.87v-4.17l13.43,53.5c.21.83.96,1.41,1.81,1.41h8.97c.86,0,1.6-.58,1.81-1.41l7.71-30.61,2.27-9.97,2.24,10.01,7.7,30.57c.21.83.96,1.41,1.81,1.41h8.97c.86,0,1.6-.58,1.81-1.41l13.68-54.48c.14-.56.01-1.15-.34-1.6-.35-.45-.9-.72-1.47-.72Z"/>
      <path d="M287.81,324.3c1.03,0,1.87-.84,1.87-1.87v-5.6c0-1.03-.84-1.87-1.87-1.87h-37.44c-1.03,0-1.87.84-1.87,1.87v54.48c0,1.03.84,1.87,1.87,1.87h37.52c1.03,0,1.87-.84,1.87-1.87v-5.68c0-1.03-.84-1.87-1.87-1.87h-29.29v-15.84h25.56c1.03,0,1.87-.84,1.87-1.87v-5.23c0-1.03-.84-1.87-1.87-1.87h-25.56v-14.65h29.22Z"/>
      <path d="M335.7,340.9c1.9-2.63,2.86-5.85,2.86-9.57,0-2.08-.28-4-.84-5.7-.57-1.73-1.4-3.28-2.49-4.63-1.09-1.35-2.45-2.49-4.04-3.4-1.55-.88-3.32-1.56-5.26-1.99-1.89-.43-4.01-.64-6.28-.64h-25.04c-1.03,0-1.87.84-1.87,1.87v54.48c0,1.03.84,1.87,1.87,1.87h6.35c1.03,0,1.87-.84,1.87-1.87v-21.3h15.99c2.46,0,4.34.28,5.59.84,1.06.48,1.77,1.14,2.15,2.03.47,1.08.71,2.5.71,4.23v8.22c0,1.38.07,2.59.2,3.6.15,1.12.43,2.17.85,3.12.3.68.97,1.12,1.71,1.12h6.43c.63,0,1.21-.32,1.56-.84.35-.52.41-1.19.16-1.76-.37-.86-.58-1.66-.64-2.4-.07-.89-.11-1.77-.11-2.62v-9.57c0-2.31-.33-4.35-.98-6.05-.7-1.83-1.85-3.33-3.41-4.47-.43-.31-.9-.6-1.41-.85,1.63-.98,2.99-2.22,4.07-3.72ZM302.83,324.15h15.47c1.62,0,3.1.17,4.39.5,1.19.31,2.24.8,3.11,1.47.82.63,1.43,1.42,1.85,2.4.44,1.03.67,2.3.67,3.78,0,2.63-.73,4.69-2.23,6.32-1.44,1.56-4.06,2.35-7.78,2.35h-15.47v-16.82Z"/>
      <path d="M377.21,317.2c-3.11-1.49-6.86-2.24-11.16-2.24h-20.92c-1.03,0-1.87.84-1.87,1.87v54.48c0,1.03.84,1.87,1.87,1.87h6.35c1.03,0,1.87-.84,1.87-1.87v-18.53h12.63c4.15,0,7.83-.75,10.93-2.24,3.17-1.52,5.7-3.73,7.5-6.59,1.8-2.86,2.72-6.25,2.72-10.08s-.86-7.25-2.54-10.08c-1.71-2.85-4.19-5.07-7.37-6.59ZM353.35,324.3h12.18c3.65,0,6.5.85,8.46,2.54,1.9,1.64,2.83,3.98,2.83,7.18,0,2.99-.9,5.31-2.76,7.1-1.85,1.78-4.72,2.69-8.53,2.69h-12.18v-19.51Z"/>
      <path d="M457.41,331.92c-1.33-3.64-3.29-6.82-5.83-9.44-2.54-2.62-5.59-4.65-9.06-6.04-3.45-1.38-7.35-2.08-11.6-2.08s-8.17.7-11.64,2.07c-3.5,1.39-6.55,3.41-9.06,6-2.51,2.59-4.48,5.77-5.83,9.43-1.34,3.63-2.02,7.74-2.02,12.23s.67,8.52,1.98,12.15c1.33,3.67,3.29,6.86,5.83,9.48,2.54,2.62,5.6,4.65,9.1,6.04,3.47,1.38,7.38,2.07,11.64,2.07s8.09-.7,11.56-2.07c3.5-1.39,6.54-3.41,9.06-6,2.51-2.59,4.48-5.77,5.83-9.43,1.34-3.63,2.02-7.74,2.02-12.23s-.67-8.58-1.98-12.19ZM449.08,344.1c0,4.28-.75,7.98-2.24,11.02-1.47,3.01-3.51,5.28-6.24,6.92-2.7,1.63-5.96,2.46-9.68,2.46-2.83,0-5.39-.47-7.62-1.39-2.19-.91-4.08-2.23-5.6-3.93-1.54-1.72-2.76-3.87-3.62-6.38-.88-2.56-1.32-5.48-1.32-8.7,0-4.33.75-8.06,2.24-11.1,1.45-2.97,3.53-5.28,6.19-6.88,2.68-1.61,5.95-2.42,9.73-2.42,2.82,0,5.37.47,7.57,1.39,2.18.91,4.09,2.24,5.66,3.95,1.58,1.71,2.81,3.84,3.64,6.32.85,2.53,1.29,5.48,1.29,8.75Z"/>
      <path d="M473.22,314.96h-8.15c-1.03,0-1.87.84-1.87,1.87v54.48c0,1.03.84,1.87,1.87,1.87h6.43c1.03,0,1.87-.84,1.87-1.87v-28.36l-.2-11.72,27.57,41.12c.35.52.93.83,1.55.83h7.85c1.03,0,1.87-.84,1.87-1.87v-54.48c0-1.03-.84-1.87-1.87-1.87h-6.13c-1.03,0-1.87.84-1.87,1.87v27.61l.2,12.68-27.57-41.33c-.35-.52-.93-.83-1.55-.83Z"/>
      <path d="M530.91,373.17h6.73c.79,0,1.49-.5,1.76-1.24l4.32-12.14h23.28l4.3,12.13c.26.75.97,1.24,1.76,1.24h6.65c.61,0,1.18-.3,1.53-.8.35-.5.43-1.14.22-1.71l-19.88-54.48c-.27-.74-.97-1.23-1.76-1.23h-8.97c-.78,0-1.48.49-1.75,1.22l-19.95,54.48c-.21.57-.13,1.21.22,1.71.35.5.92.8,1.53.8ZM546.91,350.83l7.67-21.52.79-2.36,8.45,23.88h-16.91Z"/>
      <rect x="583.75" y="314.96" width="10.09" height="58.22" rx="1.87" ry="1.87"/>
      <path d="M642.89,320.99c-1.09-1.35-2.45-2.49-4.04-3.4-1.55-.88-3.32-1.56-5.26-1.99-1.89-.43-4.01-.64-6.28-.64h-25.04c-1.03,0-1.87.84-1.87,1.87v54.48c0,1.03.84,1.87,1.87,1.87h6.35c1.03,0,1.87-.84,1.87-1.87v-21.3h15.99c2.46,0,4.34.28,5.59.84,1.06.48,1.77,1.14,2.15,2.03.47,1.08.71,2.5.71,4.23v8.22c0,1.37.07,2.59.2,3.6.15,1.12.43,2.17.85,3.12.3.68.97,1.12,1.71,1.12h6.43c.63,0,1.21-.32,1.56-.84.35-.52.41-1.19.16-1.76-.37-.85-.58-1.66-.64-2.4-.07-.89-.11-1.77-.11-2.62v-9.57c0-2.31-.33-4.35-.98-6.05-.7-1.83-1.85-3.33-3.41-4.47-.43-.31-.9-.6-1.41-.85,1.63-.98,3-2.22,4.07-3.72,1.9-2.63,2.86-5.85,2.86-9.57,0-2.08-.28-4-.84-5.7-.57-1.73-1.4-3.29-2.49-4.63ZM610.5,324.15h15.47c1.62,0,3.1.17,4.39.5,1.19.31,2.24.8,3.1,1.47.82.63,1.43,1.42,1.85,2.4.44,1.03.67,2.3.67,3.78,0,2.63-.73,4.69-2.23,6.32-1.44,1.56-4.06,2.35-7.78,2.35h-15.47v-16.82Z"/>
      <path d="M216.29,399.03c1.03,0,1.87-.84,1.87-1.87v-5.6c0-1.03-.84-1.87-1.87-1.87h-37.29c-1.03,0-1.87.84-1.87,1.87v54.48c0,1.03.84,1.87,1.87,1.87h6.35c1.03,0,1.87-.84,1.87-1.87v-22.34h26.08c1.03,0,1.87-.84,1.87-1.87v-5.31c0-1.03-.84-1.87-1.87-1.87h-26.08v-15.62h29.07Z"/>
      <path d="M220.55,391.56v54.48c0,1.03.84,1.87,1.87,1.87h37.52c1.03,0,1.87-.84,1.87-1.87v-5.68c0-1.03-.84-1.87-1.87-1.87h-29.3v-15.84h25.56c1.03,0,1.87-.84,1.87-1.87v-5.23c0-1.03-.84-1.87-1.87-1.87h-25.56v-14.65h29.22c1.03,0,1.87-.84,1.87-1.87v-5.6c0-1.03-.84-1.87-1.87-1.87h-37.44c-1.03,0-1.87.84-1.87,1.87Z"/>
      <path d="M272.43,391.07c-3.21,1.36-5.73,3.34-7.47,5.9-1.75,2.57-2.64,5.61-2.64,9.01,0,2.57.47,4.83,1.38,6.72.93,1.92,2.32,3.55,4.14,4.85,1.72,1.23,3.89,2.26,6.43,3.06,2.42.77,5.25,1.46,8.45,2.08,2.7.43,5,.93,6.82,1.48,1.73.52,3.14,1.13,4.17,1.82.91.61,1.56,1.33,1.96,2.19.43.92.65,2.12.65,3.58,0,1.82-.44,3.24-1.34,4.35-.94,1.16-2.29,2.04-4.03,2.62-1.89.63-4.18.95-6.81.95-3.05,0-5.53-.44-7.39-1.32-1.77-.83-3.07-2-3.95-3.56-.91-1.61-1.4-3.55-1.44-5.77-.02-1.02-.85-1.83-1.87-1.83h-6.58c-.5,0-.98.2-1.33.56-.35.36-.54.84-.54,1.34.05,3.75.94,7.13,2.64,10.06,1.73,2.98,4.35,5.33,7.8,6.99,3.35,1.61,7.59,2.43,12.58,2.43,4.71,0,8.78-.7,12.08-2.09,3.41-1.43,6.04-3.46,7.84-6.04,1.81-2.6,2.73-5.65,2.73-9.06s-.59-6.13-1.75-8.31c-1.17-2.19-2.77-3.96-4.77-5.28-1.89-1.24-4.07-2.23-6.49-2.92-2.3-.66-4.73-1.21-7.23-1.62-3.72-.63-6.69-1.31-8.84-2.02-1.89-.63-3.22-1.41-3.96-2.32-.69-.85-1.04-2.11-1.04-3.75,0-1.55.37-2.8,1.13-3.82.78-1.06,1.96-1.9,3.49-2.52,1.64-.65,3.68-.99,6.07-.99s4.46.36,6.17,1.06c1.61.66,2.83,1.62,3.73,2.92.89,1.29,1.38,2.98,1.47,5,.04,1,.87,1.79,1.87,1.79h6.5c.5,0,.98-.2,1.33-.56.35-.36.54-.84.54-1.34-.06-3.53-.95-6.65-2.66-9.28-1.71-2.63-4.19-4.71-7.36-6.17-3.1-1.43-6.89-2.15-11.28-2.15s-8.08.67-11.19,1.98Z"/>
      <path d="M304.62,391.56v5.6c0,1.03.84,1.87,1.87,1.87h15.77v47.01c0,1.03.84,1.87,1.87,1.87h6.35c1.03,0,1.87-.84,1.87-1.87v-47.01h15.92c1.03,0,1.87-.84,1.87-1.87v-5.6c0-1.03-.84-1.87-1.87-1.87h-41.78c-1.03,0-1.87.84-1.87,1.87Z"/>
      <rect x="352.3" y="389.69" width="10.09" height="58.22" rx="1.87" ry="1.87"/>
      <path d="M391.1,435.84l-4.97-13.88-10.84-31.01c-.26-.75-.97-1.25-1.76-1.25h-7.1c-.61,0-1.19.3-1.54.8s-.43,1.15-.21,1.72l20.4,54.48c.27.73.97,1.21,1.75,1.21h8.52c.78,0,1.48-.48,1.75-1.21l20.4-54.48c.21-.57.14-1.22-.21-1.72s-.92-.8-1.54-.8h-7.03c-.79,0-1.5.5-1.76,1.25l-10.83,30.99-5.04,13.9Z"/>
      <path d="M437.57,389.69h-8.97c-.78,0-1.48.49-1.75,1.22l-19.95,54.48c-.21.57-.13,1.21.22,1.71.35.5.92.8,1.53.8h6.73c.79,0,1.49-.5,1.76-1.24l4.32-12.14h23.28l4.3,12.13c.26.75.97,1.24,1.76,1.24h6.65c.61,0,1.18-.3,1.53-.8.35-.5.43-1.14.22-1.71l-19.88-54.48c-.27-.74-.97-1.23-1.76-1.23ZM424.65,425.56l7.67-21.52.79-2.36,8.45,23.88h-16.91Z"/>
      <path d="M461.49,391.56v54.48c0,1.03.84,1.87,1.87,1.87h33.18c1.03,0,1.87-.84,1.87-1.87v-5.83c0-1.03-.84-1.87-1.87-1.87h-24.96v-46.78c0-1.03-.84-1.87-1.87-1.87h-6.35c-1.03,0-1.87.84-1.87,1.87Z"/>
    </g>
  </g>
</svg>