<?xml version="1.0" encoding="UTF-8"?>
<svg id="Layer_2" data-name="Layer 2" xmlns="http://www.w3.org/2000/svg" viewBox="0 0 630.74 625.95">
  <g id="Layer_1-2" data-name="Layer 1">
    <g>
      <path d="M599.64,33.6c-1-7.99-6.97-14.47-14.86-16.11L502.87.4c-7.89-1.65-15.95,1.9-20.06,8.83l-105.93,178.3c-.11-.04-.22-.08-.33-.13-15.94-6.07-33.52-9.14-52.25-9.14s-36.35,3.09-52.23,9.18c-12.62,4.84-24.08,11.43-34.21,19.66l-92.56-139.65c-4.45-6.71-12.67-9.86-20.47-7.83l-80.97,21.1c-7.79,2.03-13.44,8.79-14.05,16.82l-18.76,248.25c-.46,6.07,2.04,11.99,6.72,15.89,4.68,3.9,10.95,5.31,16.84,3.77l85.65-22.32c7.9-2.06,13.58-8.97,14.07-17.12l1.73-29,13.87-3.61,15.66,24.47c4.4,6.88,12.73,10.14,20.63,8.08l5.46-1.42c.9,15.5,3.8,30,8.65,43.21,6.37,17.37,15.88,32.45,28.25,44.82,12.22,12.22,26.85,21.65,43.48,28.03,15.89,6.09,33.46,9.18,52.23,9.18s36.35-3.09,52.24-9.18c16.56-6.35,31.17-15.72,43.44-27.86,12.54-12.41,22.14-27.54,28.53-44.98,5.94-16.2,8.96-34.32,8.96-53.85,0-16.17-2.07-31.32-6.16-45.16l3.35.7c8,1.67,16.15-2,20.21-9.09l14.44-25.21,14.03,2.93,3.15,28.88c.89,8.12,6.9,14.74,14.89,16.41l86.65,18.08c5.96,1.24,12.15-.47,16.63-4.6,4.48-4.13,6.68-10.16,5.93-16.2l-30.96-247.02ZM542.5,249.23l-3.15-28.88c-.89-8.12-6.9-14.74-14.89-16.41l-40.84-8.52c-7.99-1.67-16.15,2-20.21,9.09l-14.44,25.21-26.84-5.6c-7.55-1.57-15.3,1.61-19.56,8.04-4.26,6.43-4.18,14.81.22,21.15,4.16,6.01,7.64,12.72,10.33,19.94,4.42,11.88,6.66,25.55,6.66,40.64s-2.24,28.83-6.65,40.86c-4.47,12.2-11.09,22.68-19.65,31.16-8.54,8.44-18.77,14.99-30.42,19.46-11.56,4.43-24.6,6.68-38.74,6.68s-27.17-2.25-38.73-6.68c-11.67-4.47-21.87-11.03-30.32-19.48-8.48-8.47-15.04-18.95-19.51-31.15-4.41-12.02-6.65-25.77-6.65-40.86,0-4.16.17-8.26.51-12.21.53-6.1-1.94-12.08-6.62-16.03-3.44-2.9-7.76-4.45-12.16-4.45-1.59,0-3.18.2-4.75.61l-16.09,4.19-15.66-24.47c-4.4-6.88-12.73-10.14-20.63-8.08l-40.37,10.52c-7.9,2.06-13.58,8.97-14.07,17.12l-1.73,29-46.86,12.21,15.76-208.5,54.91-14.31,97.82,147.59c3.32,5.01,8.84,8.14,14.84,8.42,6.03.28,11.79-2.33,15.56-7.01,1.79-2.22,3.71-4.37,5.72-6.37,8.45-8.45,18.66-15.01,30.33-19.48,11.56-4.43,24.59-6.68,38.73-6.68s27.2,2.25,38.84,6.68c4.19,1.6,8.24,3.48,12.03,5.61,8.92,5,20.21,1.98,25.43-6.81l107.76-181.38,55.55,11.59,26,207.47-47.4-9.89Z"/>
      <path d="M1.87,550.54h6.73c.79,0,1.49-.5,1.76-1.24l4.32-12.14h23.28l4.3,12.13c.26.75.97,1.24,1.76,1.24h6.65c.61,0,1.18-.3,1.53-.8.35-.5.43-1.14.22-1.71l-19.88-54.48c-.27-.74-.97-1.23-1.76-1.23h-8.97c-.78,0-1.48.49-1.75,1.23L.11,548.03c-.21.57-.13,1.21.22,1.71.35.5.92.8,1.53.8ZM17.87,528.2l7.67-21.52.8-2.36,8.45,23.88h-16.91Z"/>
      <path d="M64.72,492.33h-8.15c-1.03,0-1.87.84-1.87,1.87v54.48c0,1.03.84,1.87,1.87,1.87h6.43c1.03,0,1.87-.84,1.87-1.87v-28.36l-.2-11.73,27.57,41.12c.35.52.93.83,1.55.83h7.85c1.03,0,1.87-.84,1.87-1.87v-54.48c0-1.03-.84-1.87-1.87-1.87h-6.13c-1.03,0-1.87.84-1.87,1.87v27.61l.21,12.68-27.57-41.33c-.35-.52-.93-.83-1.55-.83Z"/>
      <path d="M221.65,492.33h-6.95c-.86,0-1.62.59-1.82,1.43l-7.79,32.65-1.73,8.65-1.95-8.74-8.22-32.58c-.21-.83-.96-1.41-1.81-1.41h-8.22c-.86,0-1.6.58-1.81,1.41l-8.31,33.09-1.82,8.28-1.71-8.31-7.92-33.03c-.2-.84-.95-1.43-1.82-1.43h-6.95c-.58,0-1.12.27-1.47.72-.1.13-.18.27-.24.42-.28-.67-.95-1.14-1.72-1.14h-41.78c-1.03,0-1.87.84-1.87,1.87v5.6c0,1.03.84,1.87,1.87,1.87h15.77v47.01c0,1.03.84,1.87,1.87,1.87h6.35c1.03,0,1.87-.84,1.87-1.87v-47.01h15.92c1.03,0,1.87-.84,1.87-1.87v-4.17l13.43,53.5c.21.83.96,1.41,1.81,1.41h8.97c.86,0,1.6-.58,1.81-1.41l7.71-30.61,2.27-9.97,2.24,10.01,7.7,30.57c.21.83.96,1.41,1.81,1.41h8.97c.86,0,1.6-.58,1.81-1.41l13.68-54.48c.14-.56.01-1.15-.34-1.6-.35-.45-.9-.72-1.47-.72Z"/>
      <path d="M265.3,501.67c1.03,0,1.87-.84,1.87-1.87v-5.6c0-1.03-.84-1.87-1.87-1.87h-37.44c-1.03,0-1.87.84-1.87,1.87v54.48c0,1.03.84,1.87,1.87,1.87h37.52c1.03,0,1.87-.84,1.87-1.87v-5.68c0-1.03-.84-1.87-1.87-1.87h-29.29v-15.84h25.56c1.03,0,1.87-.84,1.87-1.87v-5.23c0-1.03-.84-1.87-1.87-1.87h-25.56v-14.65h29.22Z"/>
      <path d="M313.18,518.27c1.9-2.63,2.86-5.85,2.86-9.57,0-2.08-.28-3.99-.84-5.7-.57-1.73-1.4-3.28-2.49-4.63-1.09-1.35-2.45-2.49-4.04-3.4-1.55-.88-3.32-1.55-5.26-1.99-1.9-.43-4.01-.64-6.28-.64h-25.04c-1.03,0-1.87.84-1.87,1.87v54.48c0,1.03.84,1.87,1.87,1.87h6.35c1.03,0,1.87-.84,1.87-1.87v-21.3h15.99c2.46,0,4.34.28,5.58.84,1.07.48,1.77,1.14,2.15,2.03.47,1.08.71,2.5.71,4.23v8.22c0,1.4.07,2.58.2,3.61.15,1.12.43,2.17.85,3.12.3.68.97,1.12,1.71,1.12h6.43c.63,0,1.21-.32,1.56-.84.34-.52.41-1.19.16-1.76-.37-.86-.58-1.66-.64-2.4-.07-.89-.11-1.77-.11-2.62v-9.57c0-2.31-.33-4.34-.98-6.05-.7-1.83-1.85-3.33-3.41-4.47-.43-.31-.9-.6-1.41-.85,1.63-.98,2.99-2.22,4.07-3.72ZM280.32,501.52h15.47c1.63,0,3.1.17,4.39.5,1.19.31,2.24.8,3.1,1.47.82.63,1.43,1.41,1.85,2.4.44,1.03.67,2.3.67,3.78,0,2.63-.73,4.69-2.23,6.32-1.44,1.56-4.06,2.35-7.78,2.35h-15.47v-16.82Z"/>
      <path d="M354.7,494.56c-3.11-1.48-6.86-2.24-11.16-2.24h-20.92c-1.03,0-1.87.84-1.87,1.87v54.48c0,1.03.84,1.87,1.87,1.87h6.35c1.03,0,1.87-.84,1.87-1.87v-18.53h12.63c4.15,0,7.83-.75,10.93-2.24,3.18-1.52,5.7-3.74,7.5-6.59,1.8-2.86,2.72-6.25,2.72-10.08s-.86-7.25-2.54-10.08c-1.7-2.85-4.19-5.07-7.37-6.59ZM330.84,501.67h12.18c3.66,0,6.5.85,8.46,2.54,1.9,1.64,2.83,3.98,2.83,7.18,0,2.99-.9,5.31-2.76,7.1-1.85,1.78-4.72,2.69-8.53,2.69h-12.18v-19.51Z"/>
      <path d="M434.9,509.29c-1.33-3.65-3.3-6.82-5.83-9.44-2.54-2.62-5.59-4.65-9.05-6.04-3.45-1.38-7.35-2.08-11.61-2.08s-8.17.7-11.64,2.07c-3.5,1.39-6.55,3.41-9.06,6-2.51,2.59-4.48,5.77-5.83,9.43-1.34,3.63-2.02,7.75-2.02,12.23s.67,8.52,1.98,12.15c1.33,3.67,3.29,6.86,5.83,9.48,2.54,2.62,5.6,4.65,9.1,6.04,3.47,1.38,7.38,2.07,11.64,2.07s8.09-.7,11.56-2.07c3.49-1.39,6.54-3.41,9.06-6,2.51-2.59,4.47-5.77,5.83-9.43,1.34-3.63,2.02-7.75,2.02-12.23s-.67-8.58-1.98-12.19ZM426.57,521.47c0,4.28-.75,7.98-2.24,11.02-1.47,3.01-3.51,5.27-6.24,6.92-2.71,1.63-5.96,2.46-9.68,2.46-2.83,0-5.39-.47-7.62-1.39-2.19-.91-4.08-2.23-5.6-3.93-1.54-1.72-2.76-3.87-3.62-6.38-.88-2.56-1.32-5.48-1.32-8.7,0-4.32.75-8.06,2.24-11.1,1.45-2.97,3.53-5.28,6.19-6.88,2.68-1.61,5.95-2.42,9.73-2.42,2.82,0,5.37.47,7.57,1.39,2.18.91,4.08,2.24,5.66,3.95,1.58,1.71,2.8,3.84,3.64,6.32.85,2.54,1.29,5.48,1.29,8.75Z"/>
      <path d="M450.71,492.33h-8.15c-1.03,0-1.87.84-1.87,1.87v54.48c0,1.03.84,1.87,1.87,1.87h6.43c1.03,0,1.87-.84,1.87-1.87v-28.36l-.2-11.72,27.57,41.12c.35.52.93.83,1.55.83h7.85c1.03,0,1.87-.84,1.87-1.87v-54.48c0-1.03-.84-1.87-1.87-1.87h-6.13c-1.03,0-1.87.84-1.87,1.87v27.61l.2,12.68-27.57-41.33c-.35-.52-.93-.83-1.55-.83Z"/>
      <path d="M508.4,550.54h6.73c.79,0,1.49-.5,1.76-1.24l4.32-12.14h23.28l4.3,12.13c.27.75.97,1.24,1.76,1.24h6.65c.61,0,1.18-.3,1.53-.8s.43-1.14.22-1.71l-19.88-54.48c-.27-.74-.97-1.23-1.76-1.23h-8.97c-.78,0-1.49.49-1.75,1.23l-19.95,54.48c-.21.57-.13,1.21.22,1.71s.92.8,1.53.8ZM524.4,528.2l7.67-21.52.79-2.36,8.45,23.88h-16.91Z"/>
      <rect x="561.23" y="492.33" width="10.09" height="58.22" rx="1.87" ry="1.87"/>
      <path d="M620.38,498.36c-1.09-1.34-2.44-2.49-4.04-3.4-1.55-.88-3.32-1.55-5.26-1.99-1.9-.43-4.01-.64-6.28-.64h-25.04c-1.03,0-1.87.84-1.87,1.87v54.48c0,1.03.84,1.87,1.87,1.87h6.35c1.03,0,1.87-.84,1.87-1.87v-21.3h15.99c2.46,0,4.34.28,5.59.84,1.06.48,1.77,1.14,2.15,2.03.47,1.08.71,2.5.71,4.23v8.22c0,1.37.07,2.59.2,3.61.15,1.12.43,2.17.85,3.12.3.68.97,1.12,1.71,1.12h6.43c.63,0,1.21-.32,1.56-.84.34-.52.41-1.19.16-1.76-.37-.85-.58-1.66-.64-2.4-.07-.9-.11-1.78-.11-2.62v-9.57c0-2.31-.33-4.35-.98-6.05-.7-1.83-1.85-3.33-3.41-4.47-.43-.31-.9-.6-1.41-.85,1.63-.98,2.99-2.22,4.07-3.72,1.9-2.63,2.86-5.85,2.86-9.57,0-2.08-.28-3.99-.84-5.7-.57-1.73-1.4-3.28-2.49-4.63ZM587.99,501.52h15.47c1.63,0,3.1.17,4.39.5,1.19.31,2.24.8,3.1,1.47.82.63,1.43,1.42,1.85,2.4.44,1.03.67,2.3.67,3.78,0,2.63-.73,4.69-2.23,6.32-1.44,1.56-4.06,2.35-7.78,2.35h-15.47v-16.82Z"/>
      <path d="M193.78,576.4c1.03,0,1.87-.84,1.87-1.87v-5.6c0-1.03-.84-1.87-1.87-1.87h-37.29c-1.03,0-1.87.84-1.87,1.87v54.48c0,1.03.84,1.87,1.87,1.87h6.35c1.03,0,1.87-.84,1.87-1.87v-22.35h26.08c1.03,0,1.87-.84,1.87-1.87v-5.31c0-1.03-.84-1.87-1.87-1.87h-26.08v-15.62h29.07Z"/>
      <path d="M198.04,568.93v54.48c0,1.03.84,1.87,1.87,1.87h37.52c1.03,0,1.87-.84,1.87-1.87v-5.68c0-1.03-.84-1.87-1.87-1.87h-29.3v-15.84h25.56c1.03,0,1.87-.84,1.87-1.87v-5.23c0-1.03-.84-1.87-1.87-1.87h-25.56v-14.65h29.22c1.03,0,1.87-.84,1.87-1.87v-5.6c0-1.03-.84-1.87-1.87-1.87h-37.44c-1.03,0-1.87.84-1.87,1.87Z"/>
      <path d="M249.92,568.44c-3.21,1.36-5.73,3.34-7.47,5.9-1.75,2.57-2.64,5.6-2.64,9.01,0,2.57.47,4.83,1.38,6.72.93,1.92,2.32,3.55,4.14,4.85,1.72,1.23,3.88,2.26,6.43,3.06,2.42.77,5.25,1.46,8.45,2.08,2.69.43,4.99.93,6.82,1.48,1.73.52,3.14,1.13,4.17,1.82.91.61,1.56,1.33,1.96,2.19.43.92.65,2.12.65,3.58,0,1.82-.44,3.24-1.34,4.35-.95,1.17-2.27,2.03-4.03,2.62-1.89.63-4.18.95-6.81.95-3.05,0-5.53-.44-7.39-1.32-1.78-.83-3.07-2-3.95-3.56-.91-1.61-1.4-3.55-1.44-5.77-.02-1.02-.85-1.83-1.87-1.83h-6.58c-.5,0-.98.2-1.33.56-.35.36-.54.84-.54,1.34.05,3.75.94,7.13,2.64,10.07,1.73,2.98,4.35,5.33,7.8,6.99,3.35,1.61,7.58,2.43,12.58,2.43,4.71,0,8.78-.7,12.08-2.09,3.41-1.43,6.04-3.46,7.84-6.04,1.81-2.6,2.73-5.65,2.73-9.06s-.59-6.13-1.75-8.31c-1.17-2.19-2.77-3.96-4.77-5.28-1.89-1.24-4.08-2.23-6.49-2.92-2.3-.66-4.74-1.21-7.23-1.62-3.72-.63-6.69-1.31-8.84-2.02-1.89-.63-3.22-1.41-3.96-2.32-.69-.85-1.04-2.11-1.04-3.75,0-1.55.37-2.8,1.13-3.82.78-1.06,1.96-1.9,3.49-2.52,1.64-.65,3.68-.99,6.07-.99s4.46.36,6.17,1.06c1.61.66,2.83,1.62,3.73,2.92.89,1.29,1.38,2.98,1.47,5,.04,1,.87,1.79,1.87,1.79h6.5c.5,0,.98-.2,1.33-.56.35-.36.54-.84.54-1.34-.06-3.53-.95-6.65-2.66-9.28-1.71-2.63-4.19-4.71-7.36-6.17-3.1-1.43-6.9-2.15-11.28-2.15s-8.08.67-11.19,1.98Z"/>
      <path d="M282.11,568.93v5.6c0,1.03.84,1.87,1.87,1.87h15.77v47.01c0,1.03.84,1.87,1.87,1.87h6.35c1.03,0,1.87-.84,1.87-1.87v-47.01h15.92c1.03,0,1.87-.84,1.87-1.87v-5.6c0-1.03-.84-1.87-1.87-1.87h-41.78c-1.03,0-1.87.84-1.87,1.87Z"/>
      <rect x="329.79" y="567.06" width="10.09" height="58.22" rx="1.87" ry="1.87"/>
      <path d="M368.59,613.21l-4.97-13.88-10.84-31.01c-.26-.75-.97-1.25-1.76-1.25h-7.1c-.61,0-1.19.3-1.54.8-.35.5-.43,1.15-.21,1.72l20.4,54.48c.27.73.97,1.21,1.75,1.21h8.52c.78,0,1.48-.48,1.75-1.21l20.4-54.48c.22-.57.14-1.22-.21-1.72-.35-.5-.92-.8-1.54-.8h-7.03c-.79,0-1.5.5-1.76,1.25l-10.83,30.99-5.03,13.9Z"/>
      <path d="M415.06,567.06h-8.97c-.78,0-1.49.49-1.75,1.23l-19.96,54.48c-.21.57-.13,1.21.22,1.71.35.5.92.8,1.53.8h6.73c.79,0,1.49-.5,1.76-1.24l4.32-12.14h23.28l4.3,12.13c.27.75.97,1.24,1.76,1.24h6.65c.61,0,1.18-.3,1.53-.8s.43-1.14.22-1.71l-19.88-54.48c-.27-.74-.97-1.23-1.76-1.23ZM402.14,602.93l7.67-21.53.79-2.36,8.45,23.88h-16.91Z"/>
      <path d="M438.97,568.93v54.48c0,1.03.84,1.87,1.87,1.87h33.18c1.03,0,1.87-.84,1.87-1.87v-5.83c0-1.03-.84-1.87-1.87-1.87h-24.96v-46.78c0-1.03-.84-1.87-1.87-1.87h-6.35c-1.03,0-1.87.84-1.87,1.87Z"/>
    </g>
  </g>
</svg>