<?xml version="1.0" encoding="UTF-8"?>
<svg id="Layer_2" data-name="Layer 2" xmlns="http://www.w3.org/2000/svg" viewBox="0 0 738.85 679.11">
  <g id="Layer_1-2" data-name="Layer 1">
    <g>
      <path d="M737.82,284.81c-1.99-5.76-6.63-10.2-12.47-11.93l-238.71-70.69c-7.72-2.29-16.05.58-20.72,7.15l-9.05,12.72c-4.33-6.53-9.26-12.59-14.74-18.14-12.27-12.4-27.03-21.94-43.87-28.35-15.94-6.07-33.52-9.14-52.25-9.14s-36.35,3.09-52.23,9.18c-8.76,3.36-16.97,7.57-24.56,12.58l-2.11-143.63c-.12-8.05-5.34-15.14-13-17.64L174.58.93c-7.66-2.5-16.06.14-20.91,6.57L3.8,206.29c-3.67,4.86-4.76,11.19-2.93,17,1.83,5.81,6.34,10.38,12.13,12.27l84.14,27.48c7.76,2.53,16.28-.21,21.09-6.81l17.12-23.48,13.63,4.45-.04,29.05c0,8.17,5.24,15.41,13,17.94l51.17,16.71c0,.38,0,.76,0,1.14,0,19.54,3.01,37.65,8.96,53.84,6.37,17.37,15.88,32.45,28.25,44.82,12.22,12.22,26.85,21.65,43.48,28.02,15.88,6.09,33.46,9.18,52.24,9.18s36.34-3.09,52.24-9.18c16.56-6.35,31.18-15.73,43.45-27.87,9.87-9.77,17.92-21.23,24.02-34.17l96.84,135.03c3.54,4.94,9.24,7.87,15.32,7.87h.04c6.09-.01,11.8-2.96,15.33-7.93l51.31-72.13c4.73-6.65,4.65-15.6-.22-22.16l-17.31-23.34,8.31-11.68,27.72,8.69c7.8,2.45,16.27-.41,21-7.06l51.31-72.13c3.53-4.96,4.45-11.32,2.46-17.08ZM661.27,341l-27.72-8.69c-7.8-2.44-16.27.41-21,7.06l-24.18,34c-4.73,6.65-4.65,15.6.22,22.16l17.31,23.34-28.07,39.46-103.76-144.68c-3.59-5.01-9.33-7.87-15.32-7.87-1.48,0-2.97.17-4.44.53-7.47,1.81-13.09,7.97-14.21,15.57-1.1,7.47-2.87,14.55-5.25,21.05-4.48,12.2-11.09,22.68-19.65,31.16-8.53,8.44-18.77,14.99-30.42,19.46-11.57,4.43-24.6,6.68-38.74,6.68s-27.17-2.25-38.74-6.68c-11.67-4.47-21.87-11.03-30.32-19.48-8.48-8.48-15.04-18.96-19.51-31.15-4.41-12.02-6.65-25.77-6.65-40.86,0-4.4.19-8.74.57-12.88.8-8.76-4.56-16.91-12.92-19.65l-51.8-16.92.04-29.05c0-8.17-5.24-15.41-13-17.94l-39.66-12.95c-7.76-2.53-16.28.21-21.09,6.81l-17.12,23.47-46.03-15.03L175.68,40.96l53.94,17.62,2.56,174.13c.12,8.27,5.62,15.49,13.55,17.82,7.93,2.32,16.46-.8,21.02-7.69,3-4.53,6.44-8.75,10.21-12.53,8.45-8.45,18.66-15.01,30.33-19.48,11.56-4.43,24.59-6.68,38.73-6.68s27.2,2.25,38.84,6.68c11.77,4.48,22.02,11.08,30.48,19.63,8.46,8.55,15.01,18.97,19.48,30.98.4,1.08.79,2.17,1.15,3.28,2.22,6.75,8.06,11.68,15.09,12.74,7.02,1.06,14.06-1.92,18.18-7.71l19.61-27.56,200.49,59.38-28.07,39.46Z"/>
      <path d="M78.76,603.71h6.73c.79,0,1.49-.5,1.76-1.24l4.32-12.14h23.28l4.3,12.13c.27.75.97,1.24,1.76,1.24h6.65c.61,0,1.18-.3,1.53-.8.35-.5.43-1.14.22-1.71l-19.88-54.48c-.27-.74-.97-1.23-1.76-1.23h-8.97c-.78,0-1.49.49-1.75,1.23l-19.95,54.48c-.21.57-.13,1.21.22,1.71.35.5.92.8,1.53.8ZM94.76,581.36l7.67-21.52.8-2.36,8.45,23.89h-16.91Z"/>
      <path d="M141.61,545.49h-8.15c-1.03,0-1.87.84-1.87,1.87v54.48c0,1.03.84,1.87,1.87,1.87h6.43c1.03,0,1.87-.84,1.87-1.87v-28.36l-.2-11.72,27.57,41.12c.35.52.93.83,1.55.83h7.85c1.03,0,1.87-.84,1.87-1.87v-54.48c0-1.03-.84-1.87-1.87-1.87h-6.13c-1.03,0-1.87.84-1.87,1.87v27.61l.21,12.68-27.57-41.33c-.35-.52-.93-.83-1.55-.83Z"/>
      <path d="M298.54,545.49h-6.95c-.87,0-1.62.59-1.82,1.43l-7.79,32.65-1.73,8.65-1.95-8.74-8.22-32.58c-.21-.83-.96-1.41-1.81-1.41h-8.22c-.86,0-1.6.58-1.81,1.41l-8.31,33.09-1.82,8.28-1.71-8.31-7.92-33.03c-.2-.84-.95-1.43-1.82-1.43h-6.95c-.58,0-1.12.27-1.47.72-.1.13-.18.27-.24.42-.28-.67-.95-1.14-1.72-1.14h-41.77c-1.03,0-1.87.84-1.87,1.87v5.61c0,1.03.84,1.87,1.87,1.87h15.77v47.01c0,1.03.84,1.87,1.87,1.87h6.35c1.03,0,1.87-.84,1.87-1.87v-47.01h15.92c1.03,0,1.87-.84,1.87-1.87v-4.18l13.43,53.51c.21.83.95,1.41,1.81,1.41h8.97c.86,0,1.6-.58,1.81-1.41l7.71-30.61,2.27-9.97,2.24,10.01,7.7,30.56c.21.83.95,1.41,1.81,1.41h8.97c.86,0,1.6-.58,1.81-1.41l13.68-54.48c.14-.56.02-1.15-.34-1.6-.35-.45-.9-.72-1.47-.72Z"/>
      <path d="M342.18,554.83c1.03,0,1.87-.84,1.87-1.87v-5.61c0-1.03-.84-1.87-1.87-1.87h-37.44c-1.03,0-1.87.84-1.87,1.87v54.48c0,1.03.84,1.87,1.87,1.87h37.52c1.03,0,1.87-.84,1.87-1.87v-5.68c0-1.03-.84-1.87-1.87-1.87h-29.29v-15.84h25.56c1.03,0,1.87-.84,1.87-1.87v-5.23c0-1.03-.84-1.87-1.87-1.87h-25.56v-14.65h29.22Z"/>
      <path d="M390.07,571.43c1.9-2.63,2.85-5.85,2.85-9.57,0-2.08-.28-4-.84-5.7-.56-1.72-1.4-3.28-2.49-4.63-1.09-1.35-2.45-2.49-4.04-3.4-1.55-.89-3.32-1.56-5.26-1.99-1.89-.43-4.01-.64-6.28-.64h-25.04c-1.03,0-1.87.84-1.87,1.87v54.48c0,1.03.84,1.87,1.87,1.87h6.35c1.03,0,1.87-.84,1.87-1.87v-21.3h15.99c2.46,0,4.34.28,5.58.84,1.07.48,1.77,1.14,2.15,2.03.47,1.08.71,2.5.71,4.23v8.22c0,1.38.07,2.59.2,3.61.15,1.12.43,2.17.85,3.12.3.68.97,1.12,1.71,1.12h6.43c.63,0,1.21-.32,1.56-.84.34-.52.41-1.19.16-1.76-.37-.86-.58-1.66-.64-2.4-.07-.9-.11-1.78-.11-2.62v-9.57c0-2.31-.33-4.35-.98-6.05-.7-1.83-1.85-3.33-3.41-4.47-.43-.31-.9-.6-1.41-.85,1.63-.98,2.99-2.22,4.07-3.72ZM357.2,554.68h15.47c1.63,0,3.1.17,4.39.5,1.19.31,2.24.8,3.11,1.47.82.63,1.43,1.41,1.85,2.39.44,1.03.67,2.3.67,3.78,0,2.63-.73,4.69-2.23,6.32-1.44,1.56-4.06,2.35-7.78,2.35h-15.47v-16.82Z"/>
      <path d="M431.58,547.73c-3.11-1.49-6.86-2.24-11.16-2.24h-20.92c-1.03,0-1.87.84-1.87,1.87v54.48c0,1.03.84,1.87,1.87,1.87h6.35c1.03,0,1.87-.84,1.87-1.87v-18.53h12.63c4.15,0,7.83-.75,10.93-2.24,3.17-1.52,5.7-3.73,7.5-6.59,1.8-2.86,2.72-6.25,2.72-10.08s-.86-7.25-2.54-10.08c-1.7-2.85-4.19-5.07-7.37-6.59ZM407.72,554.83h12.18c3.66,0,6.5.85,8.46,2.54,1.9,1.64,2.83,3.98,2.83,7.18,0,2.99-.9,5.31-2.76,7.1-1.84,1.78-4.71,2.69-8.53,2.69h-12.18v-19.5Z"/>
      <path d="M511.79,562.45c-1.33-3.64-3.29-6.82-5.83-9.44-2.54-2.62-5.59-4.65-9.05-6.04-3.45-1.38-7.35-2.08-11.6-2.08s-8.17.7-11.64,2.07c-3.5,1.39-6.55,3.41-9.06,6-2.51,2.59-4.48,5.77-5.83,9.43-1.34,3.63-2.02,7.75-2.02,12.23s.67,8.52,1.98,12.14c1.33,3.67,3.29,6.86,5.83,9.48,2.54,2.62,5.6,4.65,9.1,6.04,3.47,1.38,7.38,2.08,11.64,2.08s8.09-.7,11.56-2.08c3.5-1.39,6.54-3.41,9.06-6,2.51-2.59,4.47-5.77,5.83-9.43,1.34-3.63,2.02-7.74,2.02-12.23s-.67-8.59-1.98-12.19ZM503.45,574.64c0,4.27-.75,7.98-2.24,11.02-1.47,3.01-3.51,5.28-6.24,6.92-2.7,1.63-5.96,2.46-9.68,2.46-2.83,0-5.39-.47-7.62-1.39-2.19-.91-4.08-2.23-5.6-3.93-1.54-1.72-2.76-3.87-3.62-6.38-.88-2.56-1.32-5.49-1.32-8.7,0-4.33.75-8.06,2.24-11.1,1.45-2.97,3.53-5.28,6.19-6.88,2.68-1.61,5.95-2.42,9.73-2.42,2.82,0,5.37.47,7.57,1.39,2.18.91,4.08,2.24,5.66,3.95,1.58,1.71,2.8,3.84,3.64,6.32.85,2.53,1.29,5.48,1.29,8.75Z"/>
      <path d="M527.59,545.49h-8.15c-1.03,0-1.87.84-1.87,1.87v54.48c0,1.03.84,1.87,1.87,1.87h6.43c1.03,0,1.87-.84,1.87-1.87v-28.36l-.2-11.72,27.57,41.12c.35.52.93.83,1.55.83h7.85c1.03,0,1.87-.84,1.87-1.87v-54.48c0-1.03-.84-1.87-1.87-1.87h-6.13c-1.03,0-1.87.84-1.87,1.87v27.61l.2,12.68-27.57-41.33c-.35-.52-.93-.83-1.55-.83Z"/>
      <path d="M585.28,603.71h6.73c.79,0,1.49-.5,1.76-1.24l4.32-12.14h23.28l4.3,12.13c.27.75.97,1.24,1.76,1.24h6.65c.61,0,1.18-.3,1.53-.8.35-.5.43-1.14.22-1.71l-19.88-54.48c-.27-.74-.97-1.23-1.76-1.23h-8.97c-.78,0-1.49.49-1.75,1.22l-19.95,54.48c-.21.57-.13,1.21.22,1.71.35.5.92.8,1.53.8ZM601.29,581.36l7.67-21.52.79-2.36,8.45,23.88h-16.91Z"/>
      <rect x="638.12" y="545.49" width="10.09" height="58.22" rx="1.87" ry="1.87"/>
      <path d="M697.74,571.43c1.9-2.63,2.86-5.85,2.86-9.57,0-2.08-.28-4-.84-5.7-.57-1.73-1.41-3.28-2.49-4.63-1.09-1.35-2.45-2.49-4.04-3.4-1.55-.88-3.32-1.56-5.26-1.99-1.89-.43-4.01-.64-6.28-.64h-25.04c-1.03,0-1.87.84-1.87,1.87v54.48c0,1.03.84,1.87,1.87,1.87h6.35c1.03,0,1.87-.84,1.87-1.87v-21.3h15.99c2.46,0,4.34.28,5.59.84,1.06.48,1.77,1.14,2.15,2.03.47,1.08.71,2.5.71,4.23v8.22c0,1.37.07,2.58.2,3.61.15,1.11.43,2.17.85,3.12.3.68.97,1.12,1.71,1.12h6.43c.63,0,1.21-.32,1.56-.84.34-.52.41-1.19.16-1.76-.37-.85-.58-1.66-.64-2.4-.07-.9-.11-1.78-.11-2.62v-9.57c0-2.31-.33-4.35-.98-6.05-.7-1.83-1.85-3.34-3.41-4.47-.43-.31-.9-.6-1.41-.85,1.63-.98,2.99-2.22,4.07-3.72ZM664.87,554.68h15.47c1.63,0,3.1.17,4.39.5,1.19.31,2.24.8,3.1,1.47.82.63,1.43,1.41,1.85,2.39.44,1.03.67,2.31.67,3.78,0,2.63-.73,4.69-2.23,6.32-1.44,1.56-4.06,2.35-7.78,2.35h-15.47v-16.82Z"/>
      <path d="M270.67,629.56c1.03,0,1.87-.84,1.87-1.87v-5.6c0-1.03-.84-1.87-1.87-1.87h-37.29c-1.03,0-1.87.84-1.87,1.87v54.48c0,1.03.84,1.87,1.87,1.87h6.35c1.03,0,1.87-.84,1.87-1.87v-22.34h26.08c1.03,0,1.87-.84,1.87-1.87v-5.31c0-1.03-.84-1.87-1.87-1.87h-26.08v-15.62h29.07Z"/>
      <path d="M274.93,622.09v54.48c0,1.03.84,1.87,1.87,1.87h37.52c1.03,0,1.87-.84,1.87-1.87v-5.68c0-1.03-.84-1.87-1.87-1.87h-29.3v-15.84h25.56c1.03,0,1.87-.84,1.87-1.87v-5.23c0-1.03-.84-1.87-1.87-1.87h-25.56v-14.65h29.22c1.03,0,1.87-.84,1.87-1.87v-5.6c0-1.03-.84-1.87-1.87-1.87h-37.44c-1.03,0-1.87.84-1.87,1.87Z"/>
      <path d="M326.81,621.6c-3.21,1.36-5.73,3.34-7.47,5.9-1.75,2.57-2.64,5.6-2.64,9.01,0,2.57.47,4.83,1.38,6.72.93,1.92,2.32,3.55,4.14,4.85,1.72,1.23,3.88,2.26,6.43,3.06,2.41.76,5.23,1.46,8.45,2.08,2.7.43,4.99.93,6.82,1.48,1.73.52,3.13,1.13,4.17,1.82.91.61,1.56,1.33,1.96,2.19.43.92.65,2.12.65,3.58,0,1.82-.44,3.24-1.34,4.35-.95,1.17-2.27,2.03-4.03,2.62-1.89.63-4.18.95-6.81.95-3.05,0-5.53-.44-7.39-1.32-1.77-.84-3.07-2-3.95-3.57-.91-1.61-1.4-3.55-1.44-5.77-.02-1.02-.85-1.83-1.87-1.83h-6.58c-.5,0-.98.2-1.33.56-.35.36-.54.84-.54,1.34.05,3.75.94,7.13,2.64,10.06,1.73,2.98,4.35,5.33,7.8,6.99,3.36,1.61,7.59,2.43,12.58,2.43,4.71,0,8.77-.7,12.08-2.09,3.41-1.43,6.04-3.46,7.84-6.04,1.81-2.6,2.73-5.65,2.73-9.06s-.59-6.13-1.75-8.31c-1.17-2.19-2.77-3.96-4.77-5.28-1.9-1.24-4.08-2.23-6.49-2.92-2.3-.66-4.73-1.21-7.23-1.62-3.72-.63-6.69-1.31-8.84-2.02-1.89-.63-3.22-1.41-3.96-2.32-.69-.85-1.04-2.11-1.04-3.75,0-1.55.37-2.79,1.13-3.82.78-1.06,1.96-1.9,3.49-2.52,1.64-.66,3.68-.99,6.07-.99s4.46.36,6.17,1.06c1.62.66,2.83,1.62,3.73,2.92.89,1.3,1.38,2.98,1.47,5,.04,1,.87,1.79,1.87,1.79h6.5c.5,0,.98-.2,1.33-.56.35-.36.54-.84.54-1.34-.06-3.53-.95-6.65-2.66-9.28-1.71-2.63-4.19-4.71-7.36-6.17-3.1-1.43-6.89-2.15-11.28-2.15s-8.08.67-11.19,1.98Z"/>
      <path d="M359,622.09v5.6c0,1.03.84,1.87,1.87,1.87h15.77v47.01c0,1.03.84,1.87,1.87,1.87h6.35c1.03,0,1.87-.84,1.87-1.87v-47.01h15.92c1.03,0,1.87-.84,1.87-1.87v-5.6c0-1.03-.84-1.87-1.87-1.87h-41.78c-1.03,0-1.87.84-1.87,1.87Z"/>
      <rect x="406.68" y="620.22" width="10.09" height="58.22" rx="1.87" ry="1.87"/>
      <path d="M445.47,666.37l-4.97-13.88-10.84-31.01c-.26-.75-.97-1.25-1.76-1.25h-7.1c-.61,0-1.19.3-1.54.8s-.43,1.15-.21,1.72l20.4,54.48c.27.73.97,1.21,1.75,1.21h8.52c.78,0,1.48-.48,1.75-1.21l20.4-54.48c.22-.57.14-1.22-.21-1.72s-.92-.8-1.54-.8h-7.03c-.79,0-1.5.5-1.76,1.25l-10.83,30.99-5.04,13.9Z"/>
      <path d="M491.95,620.22h-8.97c-.78,0-1.49.49-1.75,1.22l-19.95,54.48c-.21.57-.13,1.21.22,1.71.35.5.92.8,1.53.8h6.73c.79,0,1.49-.5,1.76-1.24l4.32-12.14h23.28l4.3,12.13c.27.75.97,1.24,1.76,1.24h6.65c.61,0,1.18-.3,1.53-.8.35-.5.43-1.14.22-1.71l-19.88-54.48c-.27-.74-.97-1.23-1.76-1.23ZM479.03,656.09l7.67-21.52.79-2.36,8.45,23.88h-16.91Z"/>
      <path d="M515.86,622.09v54.48c0,1.03.84,1.87,1.87,1.87h33.18c1.03,0,1.87-.84,1.87-1.87v-5.83c0-1.03-.84-1.87-1.87-1.87h-24.96v-46.78c0-1.03-.84-1.87-1.87-1.87h-6.35c-1.03,0-1.87.84-1.87,1.87Z"/>
    </g>
  </g>
</svg>