<?xml version="1.0" encoding="UTF-8"?>
<svg id="Layer_2" data-name="Layer 2" xmlns="http://www.w3.org/2000/svg" viewBox="0 0 623.71 587.5">
  <g id="Layer_1-2" data-name="Layer 1">
    <g>
      <path d="M559.49,40.17l-79.27-26.8c-7.63-2.58-16.06-.03-20.97,6.35l-60.92,79.08c-1.35-5.88-3.03-11.54-5.06-16.98-6.35-17.05-15.77-31.96-28.02-44.34-12.28-12.4-27.03-21.93-43.87-28.34-15.94-6.07-33.52-9.14-52.25-9.14s-36.35,3.09-52.23,9.18c-16.64,6.38-31.27,15.81-43.49,28.03-12.35,12.35-21.84,27.35-28.21,44.6-1.27,3.44-2.41,6.98-3.42,10.59-4.59-3.81-10.83-5.31-16.81-3.75l-80.97,21.1c-7.79,2.03-13.44,8.79-14.05,16.82l-18.76,248.25c-.46,6.07,2.04,11.99,6.72,15.89,3.43,2.86,7.72,4.38,12.08,4.38,1.59,0,3.18-.2,4.75-.61l85.65-22.32c7.9-2.06,13.58-8.97,14.07-17.12l1.73-29,13.87-3.61,15.66,24.47c4.4,6.88,12.73,10.14,20.63,8.08l85.65-22.32c5.89-1.54,10.68-5.82,12.85-11.51,2.17-5.69,1.47-12.08-1.89-17.15l-21.66-32.68c2.58.12,5.18.18,7.81.18,18.77,0,36.34-3.09,52.23-9.18,6.11-2.34,12.01-5.13,17.61-8.31l61.09,20.66c7.73,2.61,16.27-.05,21.15-6.59l17.36-23.3,13.58,4.59-.34,29.05c-.09,8.16,5.08,15.46,12.81,18.08l83.85,28.35c5.77,1.95,12.12,1,17.06-2.57,4.94-3.56,7.85-9.29,7.83-15.38l-1.08-248.95c-.04-8.05-5.18-15.2-12.82-17.78ZM489.69,265.16l.34-29.05c.09-8.16-5.08-15.46-12.81-18.08l-39.52-13.36c-7.74-2.62-16.28.05-21.15,6.59l-17.36,23.3-56.53-19.11c-5.57-1.89-11.71-1.06-16.59,2.24-5.57,3.76-11.69,6.93-18.19,9.43-11.57,4.43-24.6,6.68-38.74,6.68s-27.17-2.25-38.73-6.68c-.99-.38-1.97-.77-2.93-1.18-7.66-3.23-16.53-1.07-21.84,5.33-5.31,6.4-5.8,15.52-1.2,22.45l32.55,49.11-46.86,12.21-15.66-24.47c-4.4-6.88-12.73-10.14-20.63-8.08l-40.37,10.52c-7.9,2.06-13.58,8.97-14.07,17.12l-1.73,29-46.86,12.21,15.76-208.5,54.91-14.31,18.19,27.44c4.71,7.11,13.61,10.17,21.7,7.46,8.09-2.71,13.35-10.51,12.83-19.02-.17-2.86-.26-5.82-.26-8.79,0-15.09,2.24-28.8,6.65-40.75,4.47-12.11,11.04-22.54,19.51-31.01,8.45-8.45,18.66-15.01,30.33-19.48,11.56-4.43,24.59-6.68,38.73-6.68s27.2,2.25,38.84,6.67c11.77,4.48,22.03,11.09,30.48,19.63,8.46,8.55,15.01,18.97,19.48,30.98,4.42,11.87,6.66,25.54,6.66,40.64,0,4.26-.18,8.48-.54,12.53-.74,8.34,4.12,16.18,11.92,19.22,7.81,3.05,16.68.58,21.79-6.06l83.13-107.91,53.75,18.17.91,209.09-45.88-15.51Z"/>
      <path d="M32.54,455.11c-.27-.74-.97-1.23-1.76-1.23h-8.97c-.78,0-1.48.49-1.75,1.23L.11,509.59c-.21.57-.13,1.21.22,1.71.35.5.92.8,1.53.8h6.73c.79,0,1.49-.5,1.76-1.24l4.32-12.14h23.28l4.3,12.13c.26.75.97,1.24,1.76,1.24h6.65c.61,0,1.18-.3,1.53-.8.35-.5.43-1.14.22-1.71l-19.88-54.48ZM17.87,489.75l7.67-21.52.8-2.36,8.45,23.88h-16.91Z"/>
      <path d="M101.63,453.88h-6.13c-1.03,0-1.87.84-1.87,1.87v27.61l.21,12.68-27.57-41.33c-.35-.52-.93-.83-1.55-.83h-8.15c-1.03,0-1.87.84-1.87,1.87v54.48c0,1.03.84,1.87,1.87,1.87h6.43c1.03,0,1.87-.84,1.87-1.87v-28.36l-.2-11.73,27.57,41.12c.35.52.93.83,1.55.83h7.85c1.03,0,1.87-.84,1.87-1.87v-54.48c0-1.03-.84-1.87-1.87-1.87Z"/>
      <path d="M221.65,453.88h-6.95c-.86,0-1.62.59-1.82,1.43l-7.79,32.65-1.73,8.65-1.95-8.74-8.22-32.58c-.21-.83-.96-1.41-1.81-1.41h-8.22c-.86,0-1.6.58-1.81,1.41l-8.31,33.08-1.82,8.28-1.71-8.31-7.92-33.03c-.2-.84-.95-1.43-1.82-1.43h-6.95c-.58,0-1.12.27-1.47.72-.1.13-.18.27-.24.42-.28-.67-.95-1.14-1.72-1.14h-41.78c-1.03,0-1.87.84-1.87,1.87v5.6c0,1.03.84,1.87,1.87,1.87h15.77v47.01c0,1.03.84,1.87,1.87,1.87h6.35c1.03,0,1.87-.84,1.87-1.87v-47.01h15.92c1.03,0,1.87-.84,1.87-1.87v-4.17l13.43,53.5c.21.83.96,1.41,1.81,1.41h8.97c.86,0,1.6-.58,1.81-1.41l7.71-30.61,2.27-9.97,2.24,10.01,7.7,30.57c.21.83.96,1.41,1.81,1.41h8.97c.86,0,1.6-.58,1.81-1.41l13.68-54.48c.14-.56.01-1.15-.34-1.6-.35-.45-.9-.72-1.47-.72Z"/>
      <path d="M265.3,463.22c1.03,0,1.87-.84,1.87-1.87v-5.6c0-1.03-.84-1.87-1.87-1.87h-37.44c-1.03,0-1.87.84-1.87,1.87v54.48c0,1.03.84,1.87,1.87,1.87h37.52c1.03,0,1.87-.84,1.87-1.87v-5.68c0-1.03-.84-1.87-1.87-1.87h-29.29v-15.84h25.56c1.03,0,1.87-.84,1.87-1.87v-5.23c0-1.03-.84-1.87-1.87-1.87h-25.56v-14.65h29.22Z"/>
      <path d="M313.18,479.82c1.89-2.63,2.86-5.85,2.86-9.57,0-2.08-.28-4-.84-5.7-.57-1.73-1.4-3.28-2.49-4.63-1.09-1.35-2.45-2.49-4.04-3.4-1.55-.88-3.32-1.56-5.26-1.99-1.9-.43-4.01-.64-6.28-.64h-25.04c-1.03,0-1.87.84-1.87,1.87v54.48c0,1.03.84,1.87,1.87,1.87h6.35c1.03,0,1.87-.84,1.87-1.87v-21.3h15.99c2.46,0,4.34.28,5.59.84,1.06.48,1.77,1.14,2.15,2.03.47,1.08.71,2.5.71,4.23v8.22c0,1.4.07,2.58.2,3.6.15,1.12.43,2.17.85,3.12.3.68.97,1.12,1.71,1.12h6.43c.63,0,1.21-.32,1.56-.84.34-.52.41-1.19.16-1.76-.37-.86-.58-1.66-.64-2.4-.07-.89-.11-1.77-.11-2.62v-9.57c0-2.31-.33-4.34-.98-6.05-.7-1.83-1.85-3.33-3.41-4.47-.43-.31-.9-.6-1.41-.85,1.63-.98,2.99-2.22,4.07-3.72ZM280.32,463.07h15.47c1.62,0,3.1.17,4.39.5,1.19.31,2.24.8,3.1,1.47.82.63,1.43,1.42,1.85,2.4.44,1.03.67,2.3.67,3.78,0,2.63-.73,4.69-2.23,6.32-1.44,1.56-4.06,2.35-7.78,2.35h-15.47v-16.82Z"/>
      <path d="M354.7,456.12c-3.11-1.49-6.86-2.24-11.16-2.24h-20.92c-1.03,0-1.87.84-1.87,1.87v54.48c0,1.03.84,1.87,1.87,1.87h6.35c1.03,0,1.87-.84,1.87-1.87v-18.53h12.63c4.15,0,7.83-.75,10.93-2.24,3.18-1.52,5.7-3.74,7.5-6.59,1.8-2.86,2.72-6.25,2.72-10.08s-.86-7.26-2.54-10.08c-1.7-2.85-4.19-5.07-7.37-6.59ZM330.84,463.22h12.18c3.66,0,6.5.85,8.46,2.54,1.9,1.64,2.83,3.98,2.83,7.18,0,2.99-.9,5.31-2.75,7.1-1.85,1.78-4.72,2.69-8.53,2.69h-12.18v-19.51Z"/>
      <path d="M434.9,470.84c-1.33-3.65-3.3-6.82-5.83-9.44-2.54-2.62-5.58-4.65-9.05-6.04-3.45-1.38-7.35-2.08-11.61-2.08s-8.17.7-11.64,2.07c-3.5,1.39-6.54,3.41-9.06,6-2.51,2.59-4.48,5.77-5.83,9.43-1.34,3.63-2.02,7.75-2.02,12.23s.67,8.52,1.98,12.15c1.33,3.67,3.29,6.86,5.83,9.48,2.54,2.62,5.6,4.66,9.1,6.04,3.47,1.38,7.38,2.07,11.64,2.07s8.09-.7,11.56-2.07c3.49-1.39,6.54-3.41,9.06-6,2.51-2.59,4.47-5.77,5.83-9.43,1.34-3.63,2.02-7.74,2.02-12.23s-.67-8.58-1.98-12.19ZM426.57,483.02c0,4.28-.75,7.98-2.24,11.02-1.47,3.01-3.51,5.28-6.24,6.92-2.71,1.63-5.96,2.46-9.68,2.46-2.83,0-5.39-.47-7.62-1.39-2.19-.91-4.08-2.23-5.6-3.93-1.54-1.72-2.76-3.87-3.62-6.38-.88-2.56-1.32-5.48-1.32-8.7,0-4.32.75-8.06,2.24-11.1,1.45-2.97,3.53-5.28,6.19-6.88,2.68-1.61,5.95-2.42,9.73-2.42,2.83,0,5.37.47,7.57,1.39,2.18.91,4.09,2.24,5.66,3.95,1.58,1.71,2.8,3.84,3.64,6.32.85,2.54,1.29,5.48,1.29,8.75Z"/>
      <path d="M450.71,453.88h-8.15c-1.03,0-1.87.84-1.87,1.87v54.48c0,1.03.84,1.87,1.87,1.87h6.43c1.03,0,1.87-.84,1.87-1.87v-28.36l-.2-11.72,27.57,41.12c.35.52.93.83,1.55.83h7.85c1.03,0,1.87-.84,1.87-1.87v-54.48c0-1.03-.84-1.87-1.87-1.87h-6.13c-1.03,0-1.87.84-1.87,1.87v27.61l.2,12.68-27.57-41.33c-.35-.52-.93-.83-1.55-.83Z"/>
      <path d="M539.07,455.11c-.27-.74-.97-1.23-1.76-1.23h-8.97c-.78,0-1.49.49-1.75,1.22l-19.95,54.48c-.21.57-.13,1.21.22,1.71.35.5.92.8,1.53.8h6.73c.79,0,1.49-.5,1.76-1.24l4.32-12.14h23.28l4.3,12.13c.27.75.97,1.24,1.76,1.24h6.65c.61,0,1.18-.3,1.53-.8.35-.5.43-1.14.22-1.71l-19.88-54.48ZM524.4,489.75l7.67-21.52.79-2.36,8.45,23.88h-16.91Z"/>
      <rect x="561.23" y="453.88" width="10.09" height="58.22" rx="1.87" ry="1.87"/>
      <path d="M620.38,459.92c-1.09-1.34-2.44-2.49-4.04-3.4-1.55-.88-3.32-1.56-5.26-1.99-1.9-.43-4.01-.64-6.28-.64h-25.04c-1.03,0-1.87.84-1.87,1.87v54.48c0,1.03.84,1.87,1.87,1.87h6.35c1.03,0,1.87-.84,1.87-1.87v-21.3h15.99c2.46,0,4.34.28,5.59.84,1.06.48,1.77,1.14,2.15,2.03.47,1.08.71,2.5.71,4.23v8.22c0,1.37.07,2.58.2,3.6.15,1.12.43,2.17.85,3.12.3.68.97,1.12,1.71,1.12h6.43c.63,0,1.21-.32,1.56-.84.34-.52.41-1.19.16-1.76-.37-.86-.58-1.66-.64-2.4-.07-.9-.11-1.78-.11-2.62v-9.57c0-2.31-.33-4.35-.98-6.05-.7-1.83-1.85-3.33-3.41-4.47-.43-.31-.9-.6-1.41-.85,1.63-.98,2.99-2.22,4.07-3.72,1.9-2.63,2.86-5.85,2.86-9.57,0-2.08-.28-4-.84-5.7-.57-1.73-1.4-3.28-2.49-4.63ZM587.99,463.07h15.47c1.62,0,3.1.17,4.39.5,1.19.31,2.24.8,3.1,1.47.82.63,1.43,1.42,1.85,2.4.44,1.03.67,2.31.67,3.78,0,2.63-.73,4.69-2.23,6.32-1.44,1.56-4.06,2.35-7.78,2.35h-15.47v-16.82Z"/>
      <path d="M193.78,537.95c1.03,0,1.87-.84,1.87-1.87v-5.6c0-1.03-.84-1.87-1.87-1.87h-37.29c-1.03,0-1.87.84-1.87,1.87v54.48c0,1.03.84,1.87,1.87,1.87h6.35c1.03,0,1.87-.84,1.87-1.87v-22.34h26.08c1.03,0,1.87-.84,1.87-1.87v-5.31c0-1.03-.84-1.87-1.87-1.87h-26.08v-15.62h29.07Z"/>
      <path d="M198.04,530.48v54.48c0,1.03.84,1.87,1.87,1.87h37.52c1.03,0,1.87-.84,1.87-1.87v-5.68c0-1.03-.84-1.87-1.87-1.87h-29.3v-15.84h25.56c1.03,0,1.87-.84,1.87-1.87v-5.23c0-1.03-.84-1.87-1.87-1.87h-25.56v-14.65h29.22c1.03,0,1.87-.84,1.87-1.87v-5.6c0-1.03-.84-1.87-1.87-1.87h-37.44c-1.03,0-1.87.84-1.87,1.87Z"/>
      <path d="M249.92,529.99c-3.21,1.36-5.73,3.34-7.47,5.9-1.75,2.57-2.64,5.61-2.64,9.01,0,2.57.47,4.83,1.38,6.72.93,1.92,2.32,3.55,4.15,4.85,1.72,1.23,3.88,2.26,6.43,3.06,2.42.77,5.25,1.46,8.45,2.08,2.69.43,4.98.93,6.82,1.48,1.73.52,3.14,1.13,4.17,1.82.91.61,1.56,1.33,1.96,2.19.43.92.65,2.12.65,3.58,0,1.82-.44,3.24-1.34,4.35-.94,1.16-2.29,2.04-4.03,2.62-1.89.63-4.18.95-6.81.95-3.05,0-5.53-.44-7.39-1.32-1.78-.84-3.07-2-3.95-3.56-.91-1.61-1.4-3.55-1.44-5.77-.02-1.02-.85-1.83-1.87-1.83h-6.58c-.5,0-.98.2-1.33.56-.35.36-.54.84-.54,1.34.05,3.75.94,7.13,2.64,10.06,1.73,2.98,4.35,5.34,7.8,6.99,3.35,1.61,7.58,2.43,12.58,2.43,4.71,0,8.78-.7,12.08-2.09,3.41-1.43,6.04-3.46,7.84-6.04,1.81-2.6,2.73-5.65,2.73-9.06s-.59-6.13-1.75-8.31c-1.17-2.19-2.77-3.96-4.77-5.28-1.89-1.24-4.07-2.22-6.49-2.92-2.3-.66-4.74-1.21-7.23-1.62-3.72-.63-6.69-1.31-8.84-2.02-1.89-.63-3.22-1.41-3.96-2.32-.69-.85-1.04-2.11-1.04-3.75,0-1.55.37-2.8,1.13-3.82.78-1.06,1.96-1.9,3.49-2.52,1.64-.65,3.68-.99,6.07-.99s4.46.36,6.17,1.06c1.61.66,2.83,1.62,3.73,2.92.89,1.3,1.38,2.98,1.47,5,.04,1,.87,1.79,1.87,1.79h6.5c.5,0,.98-.2,1.33-.56.35-.36.54-.84.54-1.34-.06-3.53-.95-6.65-2.66-9.28-1.71-2.63-4.19-4.71-7.36-6.17-3.1-1.43-6.9-2.15-11.28-2.15s-8.08.67-11.19,1.98Z"/>
      <path d="M282.11,530.48v5.6c0,1.03.84,1.87,1.87,1.87h15.77v47.01c0,1.03.84,1.87,1.87,1.87h6.35c1.03,0,1.87-.84,1.87-1.87v-47.01h15.92c1.03,0,1.87-.84,1.87-1.87v-5.6c0-1.03-.84-1.87-1.87-1.87h-41.78c-1.03,0-1.87.84-1.87,1.87Z"/>
      <rect x="329.79" y="528.61" width="10.09" height="58.22" rx="1.87" ry="1.87"/>
      <path d="M368.59,574.76l-4.97-13.88-10.84-31.01c-.26-.75-.97-1.25-1.76-1.25h-7.1c-.61,0-1.19.3-1.54.8s-.43,1.15-.21,1.72l20.4,54.48c.27.73.97,1.21,1.75,1.21h8.52c.78,0,1.48-.48,1.75-1.21l20.4-54.48c.22-.57.14-1.22-.21-1.72s-.92-.8-1.54-.8h-7.03c-.79,0-1.5.5-1.76,1.25l-10.83,30.99-5.03,13.9Z"/>
      <path d="M415.06,528.61h-8.97c-.78,0-1.49.49-1.75,1.22l-19.96,54.48c-.21.57-.13,1.21.22,1.71.35.5.92.8,1.53.8h6.73c.79,0,1.49-.5,1.76-1.24l4.32-12.14h23.28l4.3,12.13c.27.75.97,1.24,1.76,1.24h6.65c.61,0,1.18-.3,1.53-.8.35-.5.43-1.14.22-1.71l-19.88-54.48c-.27-.74-.97-1.23-1.76-1.23ZM402.14,564.48l7.67-21.52.79-2.36,8.45,23.88h-16.91Z"/>
      <path d="M438.97,530.48v54.48c0,1.03.84,1.87,1.87,1.87h33.18c1.03,0,1.87-.84,1.87-1.87v-5.83c0-1.03-.84-1.87-1.87-1.87h-24.96v-46.78c0-1.03-.84-1.87-1.87-1.87h-6.35c-1.03,0-1.87.84-1.87,1.87Z"/>
    </g>
  </g>
</svg>