<?xml version="1.0" encoding="UTF-8"?>
<svg id="Layer_2" data-name="Layer 2" xmlns="http://www.w3.org/2000/svg" viewBox="0 0 701.25 533.83">
  <g id="Layer_1-2" data-name="Layer 1">
    <g>
      <path d="M126.72,290.54c6.03.92,12.11-1.12,16.36-5.49l77.76-79.89c.59,1.84,1.21,3.66,1.87,5.45,6.37,17.37,15.88,32.45,28.25,44.82,12.22,12.22,26.85,21.65,43.48,28.02,15.89,6.09,33.46,9.18,52.24,9.18s36.34-3.09,52.23-9.18c9.65-3.7,18.68-8.46,26.97-14.19l40.2,18.28c7.43,3.38,16.2,1.59,21.71-4.43l19.62-21.43,13.05,5.93-3.26,28.87c-.92,8.11,3.5,15.9,10.93,19.28l80.57,36.64c2.49,1.13,5.15,1.69,7.8,1.69,3.27,0,6.52-.85,9.43-2.53,5.27-3.05,8.75-8.45,9.34-14.51l23.97-247.8c.78-8.02-3.63-15.64-10.96-18.98l-76.17-34.64c-7.33-3.34-15.97-1.64-21.51,4.21l-74.92,79.27c-1.31-5.59-2.94-10.98-4.87-16.17-6.35-17.05-15.77-31.96-28.02-44.34-12.27-12.4-27.03-21.94-43.87-28.35-15.94-6.07-33.52-9.14-52.25-9.14s-36.35,3.09-52.23,9.18c-.58.22-1.16.45-1.73.68l-10.46-20.66c-3.64-7.19-11.44-11.26-19.42-10.16L16.26,34.46c-6.03.84-11.29,4.54-14.11,9.93-2.82,5.39-2.87,11.82-.12,17.25l39.97,78.98c3.69,7.29,11.65,11.37,19.71,10.12l28.71-4.46,6.47,12.79-20.59,20.49c-5.79,5.76-7.21,14.59-3.52,21.88l39.97,78.98c2.75,5.43,7.95,9.2,13.97,10.12ZM136.72,154.26l-18.84-37.22c-3.69-7.29-11.65-11.37-19.71-10.12l-28.71,4.46-21.87-43.21,207.1-28.79,12.78,25.25c2.36,4.67,6.55,8.14,11.58,9.59,5.02,1.46,10.42.76,14.91-1.92,4.37-2.61,9.08-4.89,13.99-6.77,11.56-4.43,24.59-6.68,38.73-6.68s27.2,2.25,38.84,6.68c11.77,4.48,22.03,11.09,30.48,19.63,8.46,8.55,15.01,18.97,19.48,30.97,4.42,11.87,6.66,25.55,6.66,40.64,0,1.62-.03,3.25-.08,4.84-.26,7.83,4.36,15,11.59,18.02,7.24,3.01,15.57,1.24,20.96-4.45l94.15-99.62,51.65,23.49-20.14,208.12-44.08-20.05,3.26-28.87c.92-8.11-3.5-15.9-10.93-19.28l-37.98-17.27c-7.44-3.38-16.2-1.59-21.71,4.43l-19.62,21.43-38.02-17.29c-6.66-3.03-14.46-1.93-20.03,2.81-7.51,6.39-16.17,11.5-25.76,15.17-11.57,4.43-24.6,6.68-38.74,6.68s-27.17-2.25-38.74-6.68c-11.66-4.47-21.87-11.03-30.32-19.48-8.48-8.47-15.04-18.95-19.51-31.15-3.61-9.84-5.77-20.9-6.43-32.86-.41-7.47-5.2-13.99-12.21-16.62-7.01-2.63-14.9-.86-20.12,4.5l-84.87,87.19-21.87-43.21,20.59-20.49c5.79-5.76,7.21-14.59,3.52-21.88Z"/>
      <path d="M110.09,401.43c-.27-.74-.97-1.23-1.76-1.23h-8.97c-.78,0-1.49.49-1.75,1.23l-19.95,54.48c-.21.57-.13,1.21.22,1.71.35.5.92.8,1.53.8h6.73c.79,0,1.49-.5,1.76-1.24l4.32-12.14h23.28l4.3,12.13c.27.75.97,1.24,1.76,1.24h6.65c.61,0,1.18-.3,1.53-.8.35-.5.43-1.14.22-1.71l-19.88-54.48ZM95.42,436.08l7.67-21.52.79-2.36,8.45,23.88h-16.91Z"/>
      <path d="M179.18,400.21h-6.13c-1.03,0-1.87.84-1.87,1.87v27.61l.2,12.68-27.57-41.33c-.35-.52-.93-.83-1.55-.83h-8.15c-1.03,0-1.87.84-1.87,1.87v54.48c0,1.03.84,1.87,1.87,1.87h6.43c1.03,0,1.87-.84,1.87-1.87v-28.36l-.2-11.73,27.57,41.12c.35.52.93.83,1.55.83h7.85c1.03,0,1.87-.84,1.87-1.87v-54.48c0-1.03-.84-1.87-1.87-1.87Z"/>
      <path d="M285.52,458.42c.86,0,1.6-.58,1.81-1.41l13.68-54.48c.14-.56.02-1.15-.34-1.6-.35-.45-.9-.72-1.47-.72h-6.95c-.87,0-1.62.59-1.82,1.43l-7.79,32.65-1.73,8.65-1.95-8.74-8.22-32.58c-.21-.83-.96-1.41-1.81-1.41h-8.22c-.86,0-1.6.58-1.81,1.41l-8.31,33.09-1.82,8.28-1.71-8.31-7.92-33.03c-.2-.84-.95-1.43-1.82-1.43h-6.95c-.58,0-1.12.27-1.47.72-.1.13-.18.27-.24.42-.28-.67-.95-1.14-1.72-1.14h-41.78c-1.03,0-1.87.84-1.87,1.87v5.61c0,1.03.84,1.87,1.87,1.87h15.77v47.01c0,1.03.84,1.87,1.87,1.87h6.35c1.03,0,1.87-.84,1.87-1.87v-47.01h15.92c1.03,0,1.87-.84,1.87-1.87v-4.18l13.43,53.51c.21.83.95,1.41,1.81,1.41h8.97c.86,0,1.6-.58,1.81-1.41l7.71-30.61,2.27-9.97,2.24,10.01,7.7,30.57c.21.83.96,1.41,1.81,1.41h8.97Z"/>
      <path d="M342.84,409.55c1.03,0,1.87-.84,1.87-1.87v-5.61c0-1.03-.84-1.87-1.87-1.87h-37.44c-1.03,0-1.87.84-1.87,1.87v54.48c0,1.03.84,1.87,1.87,1.87h37.52c1.03,0,1.87-.84,1.87-1.87v-5.68c0-1.03-.84-1.87-1.87-1.87h-29.3v-15.84h25.56c1.03,0,1.87-.84,1.87-1.87v-5.23c0-1.03-.84-1.87-1.87-1.87h-25.56v-14.65h29.22Z"/>
      <path d="M390.73,426.15c1.9-2.63,2.86-5.85,2.86-9.57,0-2.08-.28-4-.84-5.7-.57-1.73-1.4-3.28-2.49-4.63-1.09-1.35-2.45-2.49-4.04-3.4-1.55-.88-3.32-1.56-5.26-1.99-1.9-.43-4.01-.64-6.28-.64h-25.04c-1.03,0-1.87.84-1.87,1.87v54.48c0,1.03.84,1.87,1.87,1.87h6.35c1.03,0,1.87-.84,1.87-1.87v-21.3h15.99c2.46,0,4.34.28,5.58.84,1.07.48,1.77,1.14,2.16,2.03.47,1.08.71,2.5.71,4.23v8.22c0,1.4.07,2.58.2,3.6.15,1.12.43,2.17.85,3.12.3.68.97,1.12,1.71,1.12h6.43c.63,0,1.21-.32,1.56-.84.34-.52.41-1.19.16-1.76-.37-.86-.58-1.66-.64-2.4-.07-.89-.11-1.77-.11-2.62v-9.57c0-2.31-.33-4.34-.98-6.05-.7-1.83-1.85-3.33-3.41-4.47-.43-.31-.9-.6-1.41-.85,1.63-.98,2.99-2.22,4.07-3.72ZM357.86,409.4h15.47c1.63,0,3.11.17,4.39.5,1.19.31,2.24.8,3.1,1.47.82.63,1.43,1.41,1.85,2.39.44,1.03.67,2.31.67,3.78,0,2.63-.73,4.69-2.23,6.32-1.44,1.56-4.06,2.35-7.78,2.35h-15.47v-16.82Z"/>
      <path d="M408.38,456.55v-18.53h12.63c4.15,0,7.83-.75,10.93-2.24,3.17-1.52,5.7-3.74,7.5-6.59,1.8-2.86,2.72-6.25,2.72-10.08s-.86-7.25-2.54-10.08c-1.7-2.85-4.19-5.07-7.37-6.59-3.11-1.49-6.86-2.24-11.16-2.24h-20.92c-1.03,0-1.87.84-1.87,1.87v54.48c0,1.03.84,1.87,1.87,1.87h6.35c1.03,0,1.87-.84,1.87-1.87ZM408.38,409.55h12.18c3.66,0,6.5.85,8.46,2.54,1.9,1.64,2.83,3.98,2.83,7.18,0,2.99-.9,5.31-2.75,7.1-1.85,1.78-4.72,2.69-8.53,2.69h-12.18v-19.51Z"/>
      <path d="M506.61,407.72c-2.54-2.62-5.59-4.65-9.06-6.04-3.45-1.38-7.35-2.08-11.6-2.08s-8.17.7-11.64,2.07c-3.5,1.39-6.54,3.41-9.06,6-2.51,2.59-4.48,5.77-5.83,9.43-1.34,3.63-2.02,7.75-2.02,12.23s.67,8.52,1.98,12.15c1.33,3.67,3.29,6.86,5.83,9.48,2.54,2.62,5.6,4.66,9.1,6.04,3.47,1.38,7.38,2.07,11.64,2.07s8.09-.7,11.56-2.07c3.49-1.39,6.54-3.41,9.06-6,2.51-2.6,4.48-5.77,5.83-9.43,1.34-3.63,2.02-7.74,2.02-12.23s-.67-8.58-1.98-12.19c-1.33-3.64-3.29-6.82-5.83-9.44ZM504.11,429.35c0,4.28-.75,7.98-2.24,11.02-1.47,3.01-3.51,5.28-6.24,6.92-2.71,1.63-5.97,2.46-9.68,2.46-2.83,0-5.39-.47-7.62-1.39-2.19-.91-4.08-2.23-5.6-3.93-1.54-1.72-2.76-3.87-3.62-6.38-.88-2.55-1.32-5.48-1.32-8.7,0-4.33.75-8.06,2.24-11.1,1.45-2.97,3.53-5.28,6.19-6.88,2.68-1.61,5.95-2.42,9.73-2.42,2.82,0,5.37.47,7.57,1.39,2.18.91,4.09,2.24,5.66,3.95,1.58,1.72,2.8,3.84,3.64,6.32.85,2.53,1.29,5.48,1.29,8.75Z"/>
      <path d="M565.17,400.21h-6.13c-1.03,0-1.87.84-1.87,1.87v27.61l.2,12.68-27.57-41.33c-.35-.52-.93-.83-1.55-.83h-8.15c-1.03,0-1.87.84-1.87,1.87v54.48c0,1.03.84,1.87,1.87,1.87h6.43c1.03,0,1.87-.84,1.87-1.87v-28.36l-.2-11.73,27.57,41.12c.35.52.93.83,1.55.83h7.85c1.03,0,1.87-.84,1.87-1.87v-54.48c0-1.03-.84-1.87-1.87-1.87Z"/>
      <path d="M616.62,401.43c-.27-.74-.97-1.23-1.76-1.23h-8.97c-.78,0-1.49.49-1.75,1.23l-19.95,54.48c-.21.57-.13,1.21.22,1.71.35.5.92.8,1.53.8h6.73c.79,0,1.49-.5,1.76-1.24l4.32-12.14h23.28l4.3,12.13c.27.75.97,1.24,1.76,1.24h6.65c.61,0,1.18-.3,1.53-.8.35-.5.43-1.14.22-1.71l-19.88-54.48ZM601.95,436.08l7.67-21.52.79-2.36,8.45,23.88h-16.91Z"/>
      <rect x="638.78" y="400.21" width="10.09" height="58.22" rx="1.87" ry="1.87"/>
      <path d="M698.4,426.15c1.9-2.63,2.85-5.85,2.85-9.57,0-2.08-.28-4-.84-5.7-.57-1.73-1.4-3.28-2.49-4.63-1.09-1.35-2.45-2.49-4.04-3.4-1.55-.88-3.32-1.55-5.26-1.99-1.9-.43-4.01-.64-6.28-.64h-25.04c-1.03,0-1.87.84-1.87,1.87v54.48c0,1.03.84,1.87,1.87,1.87h6.35c1.03,0,1.87-.84,1.87-1.87v-21.3h15.99c2.46,0,4.34.28,5.59.84,1.07.48,1.77,1.14,2.15,2.03.47,1.08.71,2.51.71,4.23v8.22c0,1.4.07,2.58.2,3.6.15,1.12.43,2.17.85,3.12.3.68.97,1.12,1.71,1.12h6.43c.63,0,1.21-.32,1.56-.84.34-.52.41-1.19.16-1.76-.37-.86-.58-1.66-.64-2.4-.07-.89-.11-1.77-.11-2.62v-9.57c0-2.31-.33-4.34-.98-6.05-.7-1.83-1.85-3.33-3.41-4.47-.43-.31-.9-.6-1.41-.85,1.63-.98,2.99-2.22,4.07-3.72ZM665.53,409.4h15.47c1.63,0,3.11.17,4.39.5,1.19.31,2.24.8,3.1,1.47.82.63,1.43,1.42,1.85,2.4.44,1.03.67,2.31.67,3.78,0,2.63-.73,4.69-2.23,6.32-1.44,1.56-4.06,2.35-7.78,2.35h-15.47v-16.82Z"/>
      <path d="M271.32,474.94h-37.29c-1.03,0-1.87.84-1.87,1.87v54.48c0,1.03.84,1.87,1.87,1.87h6.35c1.03,0,1.87-.84,1.87-1.87v-22.34h26.08c1.03,0,1.87-.84,1.87-1.87v-5.31c0-1.03-.84-1.87-1.87-1.87h-26.08v-15.62h29.07c1.03,0,1.87-.84,1.87-1.87v-5.61c0-1.03-.84-1.87-1.87-1.87Z"/>
      <path d="M314.97,523.74h-29.3v-15.84h25.56c1.03,0,1.87-.84,1.87-1.87v-5.23c0-1.03-.84-1.87-1.87-1.87h-25.56v-14.65h29.22c1.03,0,1.87-.84,1.87-1.87v-5.61c0-1.03-.84-1.87-1.87-1.87h-37.44c-1.03,0-1.87.84-1.87,1.87v54.48c0,1.03.84,1.87,1.87,1.87h37.52c1.03,0,1.87-.84,1.87-1.87v-5.68c0-1.03-.84-1.87-1.87-1.87Z"/>
      <path d="M355.23,503.05c-1.89-1.24-4.08-2.23-6.49-2.92-2.3-.66-4.74-1.21-7.23-1.62-3.72-.63-6.69-1.31-8.84-2.02-1.89-.63-3.22-1.41-3.96-2.32-.69-.85-1.04-2.11-1.04-3.75,0-1.55.37-2.8,1.13-3.82.78-1.05,1.95-1.9,3.49-2.51,1.64-.65,3.68-.99,6.07-.99s4.46.36,6.17,1.06c1.61.66,2.83,1.62,3.73,2.92.89,1.29,1.38,2.98,1.47,5,.04,1,.87,1.79,1.87,1.79h6.5c.5,0,.98-.2,1.33-.56.35-.36.54-.84.54-1.34-.06-3.53-.95-6.65-2.65-9.28-1.71-2.63-4.19-4.71-7.36-6.17-3.1-1.43-6.9-2.15-11.28-2.15s-8.08.67-11.19,1.98c-3.21,1.36-5.73,3.34-7.47,5.9-1.75,2.57-2.64,5.6-2.64,9.01,0,2.57.47,4.83,1.38,6.72.93,1.92,2.33,3.55,4.15,4.85,1.72,1.23,3.88,2.26,6.43,3.06,2.42.77,5.25,1.46,8.45,2.08,2.69.43,4.98.93,6.82,1.48,1.73.52,3.13,1.13,4.17,1.82.91.61,1.56,1.33,1.96,2.19.43.92.65,2.12.65,3.58,0,1.82-.44,3.24-1.34,4.35-.95,1.17-2.27,2.03-4.03,2.62-1.89.63-4.18.95-6.81.95-3.05,0-5.53-.44-7.39-1.32-1.78-.84-3.07-2-3.95-3.57-.91-1.61-1.4-3.55-1.44-5.77-.02-1.02-.85-1.83-1.87-1.83h-6.58c-.5,0-.98.2-1.33.56-.35.36-.54.84-.54,1.34.05,3.75.94,7.13,2.64,10.06,1.73,2.99,4.35,5.34,7.8,6.99,3.35,1.61,7.59,2.43,12.58,2.43,4.71,0,8.77-.7,12.08-2.09,3.41-1.43,6.04-3.46,7.83-6.04,1.81-2.6,2.73-5.65,2.73-9.06s-.59-6.13-1.75-8.31c-1.16-2.19-2.77-3.96-4.77-5.28Z"/>
      <path d="M403.3,474.94h-41.77c-1.03,0-1.87.84-1.87,1.87v5.61c0,1.03.84,1.87,1.87,1.87h15.77v47.01c0,1.03.84,1.87,1.87,1.87h6.35c1.03,0,1.87-.84,1.87-1.87v-47.01h15.92c1.03,0,1.87-.84,1.87-1.87v-5.61c0-1.03-.84-1.87-1.87-1.87Z"/>
      <rect x="407.34" y="474.94" width="10.09" height="58.22" rx="1.87" ry="1.87"/>
      <path d="M472.32,475.74c-.35-.5-.92-.8-1.54-.8h-7.02c-.79,0-1.5.5-1.76,1.25l-10.83,30.99-5.03,13.9-4.97-13.88-10.84-31.01c-.26-.75-.97-1.25-1.76-1.25h-7.1c-.61,0-1.19.3-1.54.8s-.43,1.15-.21,1.72l20.4,54.48c.27.73.97,1.21,1.75,1.21h8.52c.78,0,1.48-.48,1.75-1.21l20.4-54.48c.22-.57.14-1.22-.21-1.72Z"/>
      <path d="M494.36,476.17c-.27-.74-.97-1.23-1.76-1.23h-8.97c-.78,0-1.49.49-1.75,1.22l-19.96,54.48c-.21.57-.13,1.21.22,1.71.35.5.92.8,1.53.8h6.73c.79,0,1.49-.5,1.76-1.24l4.32-12.14h23.28l4.3,12.13c.27.75.97,1.24,1.76,1.24h6.65c.61,0,1.18-.3,1.53-.8.35-.5.43-1.14.22-1.71l-19.88-54.48ZM479.69,510.81l7.67-21.52.79-2.36,8.45,23.88h-16.91Z"/>
      <path d="M551.57,523.59h-24.96v-46.78c0-1.03-.84-1.87-1.87-1.87h-6.35c-1.03,0-1.87.84-1.87,1.87v54.48c0,1.03.84,1.87,1.87,1.87h33.18c1.03,0,1.87-.84,1.87-1.87v-5.83c0-1.03-.84-1.87-1.87-1.87Z"/>
    </g>
  </g>
</svg>